<?xml version="1.0" encoding="UTF-8" standalone="no"?>
<!DOCTYPE svg PUBLIC "-//W3C//DTD SVG 1.1//EN" "http://www.w3.org/Graphics/SVG/1.1/DTD/svg11.dtd">
<svg width="100%" height="100%" viewBox="0 0 3072 1024" version="1.1" xmlns="http://www.w3.org/2000/svg" xmlns:xlink="http://www.w3.org/1999/xlink" xml:space="preserve" xmlns:serif="http://www.serif.com/" style="fill-rule:evenodd;clip-rule:evenodd;stroke-linejoin:round;stroke-miterlimit:2;">
    <g transform="matrix(1,0,0,1,0,-1177)">
        <g id="Sand" transform="matrix(1,0,0,0.474074,0,1177)">
            <rect x="0" y="0" width="3072" height="2160" style="fill:none;"/>
            <clipPath id="_clip1">
                <rect x="0" y="0" width="3072" height="2160"/>
            </clipPath>
            <g clip-path="url(#_clip1)">
                <g transform="matrix(1,0,0,2.109375,1236.000151,-2195.8602)">
                    <g>
                        <g transform="matrix(0.309095,0,0,3.953223,-1219.029945,5091.408882)">
                            <path d="M669.794,-1008.395C669.794,-1012.862 623.405,-1016.489 566.266,-1016.489L152.153,-1016.489C95.015,-1016.489 48.625,-1012.862 48.625,-1008.395L48.625,-846.501C48.625,-842.034 95.015,-838.407 152.153,-838.407L566.266,-838.407C623.405,-838.407 669.794,-842.034 669.794,-846.501L669.794,-1008.395Z" style="fill:#e9d3a6;"/>
                        </g>
                        <g transform="matrix(0.309095,0,0,1.078152,-1219.029945,2936.929979)">
                            <path d="M669.794,-986.809C669.794,-1003.19 623.405,-1016.489 566.266,-1016.489L152.153,-1016.489C95.015,-1016.489 48.625,-1003.19 48.625,-986.809L48.625,-868.087C48.625,-851.706 95.015,-838.407 152.153,-838.407L566.266,-838.407C623.405,-838.407 669.794,-851.706 669.794,-868.087L669.794,-986.809Z" style="fill:#e9d3a6;"/>
                        </g>
                        <g transform="matrix(1.133347,0,0,1.078152,-1003.109394,2936.929979)">
                            <path d="M669.794,-986.809C669.794,-1003.19 657.142,-1016.489 641.559,-1016.489L76.86,-1016.489C61.277,-1016.489 48.625,-1003.19 48.625,-986.809L48.625,-868.087C48.625,-851.706 61.277,-838.407 76.86,-838.407L641.559,-838.407C657.142,-838.407 669.794,-851.706 669.794,-868.087L669.794,-986.809Z" style="fill:#e9d3a6;"/>
                        </g>
                        <g transform="matrix(0.36061,0,0,1.257844,-965.53491,2351.584911)">
                            <path d="M669.794,-1016.489L137.364,-1016.489C88.388,-1016.489 48.625,-1005.09 48.625,-991.049L48.625,-838.407L581.056,-838.407C581.056,-852.448 620.818,-863.847 669.794,-863.847L669.794,-1016.489Z" style="fill:#e9d3a6;"/>
                        </g>
                        <g transform="matrix(0.36061,0,0,1.257844,826.46509,2351.584911)">
                            <path d="M669.794,-1016.489L137.364,-1016.489C88.388,-1016.489 48.625,-1005.09 48.625,-991.049L48.625,-838.407L669.794,-838.407L669.794,-1016.489Z" style="fill:#e9d3a6;"/>
                        </g>
                        <g transform="matrix(0.412126,0,0,1.257844,279.960124,2351.584911)">
                            <path d="M669.794,-1016.489L48.625,-1016.489L48.625,-838.407L592.148,-838.407C592.148,-852.448 626.94,-863.847 669.794,-863.847L669.794,-1016.489Z" style="fill:#e9d3a6;"/>
                        </g>
                        <g transform="matrix(0.412126,0,0,1.257844,23.960124,2351.584911)">
                            <path d="M669.794,-1016.489L48.625,-1016.489L48.625,-863.847C91.479,-863.847 126.271,-852.448 126.271,-838.407L669.794,-838.407L669.794,-1016.489Z" style="fill:#e9d3a6;"/>
                        </g>
                        <g transform="matrix(0.412126,0,0,1.437536,1047.960124,2502.239842)">
                            <path d="M669.794,-994.229C626.94,-994.229 592.148,-1004.203 592.148,-1016.489L126.271,-1016.489C126.271,-1004.203 91.479,-994.229 48.625,-994.229L48.625,-838.407L669.794,-838.407L669.794,-994.229Z" style="fill:#e9d3a6;"/>
                        </g>
                        <g transform="matrix(0.412126,0,0,1.437536,1303.960124,3014.239842)">
                            <path d="M669.794,-994.229C626.94,-994.229 592.148,-1004.203 592.148,-1016.489L48.625,-1016.489L48.625,-860.667C91.479,-860.667 126.271,-850.692 126.271,-838.407L669.794,-838.407L669.794,-994.229Z" style="fill:#e9d3a6;"/>
                        </g>
                        <g transform="matrix(0.412126,0,0,1.437536,1559.960124,2758.239842)">
                            <path d="M669.794,-994.229C626.94,-994.229 592.148,-1004.203 592.148,-1016.489L48.625,-1016.489L48.625,-838.407L592.148,-838.407C592.148,-850.692 626.94,-860.667 669.794,-860.667L669.794,-994.229Z" style="fill:#e9d3a6;"/>
                        </g>
                        <g transform="matrix(0.412126,0,0,1.437536,791.960124,3014.239842)">
                            <path d="M669.794,-1016.489L126.271,-1016.489C126.271,-1004.203 91.479,-994.229 48.625,-994.229L48.625,-860.667C91.479,-860.667 126.271,-850.692 126.271,-838.407L669.794,-838.407L669.794,-1016.489Z" style="fill:#e9d3a6;"/>
                        </g>
                        <g transform="matrix(0.412126,0,0,1.437536,535.960124,3270.239842)">
                            <path d="M669.794,-993.326C625.203,-993.326 589,-1003.705 589,-1016.489L126.271,-1016.489C126.271,-1004.203 91.479,-994.229 48.625,-994.229L48.625,-860.667C91.479,-860.667 126.271,-850.692 126.271,-838.407L669.794,-838.407L669.794,-993.326Z" style="fill:#e9d3a6;"/>
                        </g>
                        <g transform="matrix(0.36061,0,0,1.437536,538.46509,2758.239842)">
                            <path d="M669.794,-1016.489L137.364,-1016.489C137.364,-1004.203 97.601,-994.229 48.625,-994.229L48.625,-860.667C97.601,-860.667 137.364,-850.692 137.364,-838.407L669.794,-838.407L669.794,-1016.489Z" style="fill:#e9d3a6;"/>
                        </g>
                        <g transform="matrix(0.412126,0,0,1.257844,279.960124,3087.584911)">
                            <path d="M669.794,-991.049C626.94,-991.049 592.148,-1002.448 592.148,-1016.489L126.271,-1016.489C126.271,-1002.448 91.479,-991.049 48.625,-991.049L48.625,-838.407L669.794,-838.407L669.794,-991.049Z" style="fill:#e9d3a6;"/>
                        </g>
                        <g transform="matrix(0.412126,0,0,1.257844,279.960124,2575.584911)">
                            <path d="M669.794,-991.049C626.94,-991.049 592.148,-1002.448 592.148,-1016.489L126.271,-1016.489C126.271,-1002.448 91.479,-991.049 48.625,-991.049L48.625,-838.407L669.794,-838.407L669.794,-991.049Z" style="fill:#e9d3a6;"/>
                        </g>
                        <g transform="matrix(0.36061,0,0,1.257844,-485.53491,2831.584911)">
                            <path d="M669.794,-1016.489L137.364,-1016.489C137.364,-1002.448 97.601,-991.049 48.625,-991.049L48.625,-838.407L581.056,-838.407C630.032,-838.407 669.794,-849.806 669.794,-863.847L669.794,-1016.489Z" style="fill:#e9d3a6;"/>
                        </g>
                        <g transform="matrix(0.36061,0,0,1.257844,-485.53491,2575.584911)">
                            <path d="M669.794,-1016.489L137.364,-1016.489C137.364,-1002.448 97.601,-991.049 48.625,-991.049L48.625,-838.407L581.056,-838.407C630.032,-838.407 669.794,-849.806 669.794,-863.847L669.794,-1016.489Z" style="fill:#e9d3a6;"/>
                        </g>
                        <g transform="matrix(0.412126,0,0,1.257844,23.960124,3087.584911)">
                            <path d="M669.794,-990.017C625.203,-990.017 589,-1001.879 589,-1016.489L126.271,-1016.489C126.271,-1002.448 91.479,-991.049 48.625,-991.049L48.625,-838.407L669.794,-838.407L669.794,-990.017Z" style="fill:#e9d3a6;"/>
                        </g>
                        <g transform="matrix(0.412126,0,0,1.257844,23.960124,2575.584911)">
                            <path d="M669.794,-990.017C625.203,-990.017 589,-1001.879 589,-1016.489L126.271,-1016.489C126.271,-1002.448 91.479,-991.049 48.625,-991.049L48.625,-838.407L669.794,-838.407L669.794,-990.017Z" style="fill:#e9d3a6;"/>
                        </g>
                        <g transform="matrix(0.412126,0,0,1.257844,-744.039876,2831.584911)">
                            <path d="M669.794,-991.049C626.94,-991.049 592.148,-1002.448 592.148,-1016.489L126.271,-1016.489C126.271,-1002.448 91.479,-991.049 48.625,-991.049L48.625,-838.407L669.794,-838.407L669.794,-991.049Z" style="fill:#e9d3a6;"/>
                        </g>
                        <g transform="matrix(0.412126,0,0,1.257844,-744.039876,2575.584911)">
                            <path d="M669.794,-991.049C626.94,-991.049 592.148,-1002.448 592.148,-1016.489L126.271,-1016.489C126.271,-1002.448 91.479,-991.049 48.625,-991.049L48.625,-838.407L669.794,-838.407L669.794,-991.049Z" style="fill:#e9d3a6;"/>
                        </g>
                        <g transform="matrix(0.412126,0,0,1.257844,-232.039876,3087.584911)">
                            <path d="M669.794,-991.049C626.94,-991.049 592.148,-1002.448 592.148,-1016.489L126.271,-1016.489C126.271,-1002.448 91.479,-991.049 48.625,-991.049L48.625,-838.407L669.794,-838.407L669.794,-991.049Z" style="fill:#e9d3a6;"/>
                        </g>
                        <g transform="matrix(0.36061,0,0,1.257844,-197.53491,2575.584911)">
                            <path d="M669.794,-991.049C620.818,-991.049 581.056,-1002.448 581.056,-1016.489L48.625,-1016.489L48.625,-838.407L669.794,-838.407L669.794,-991.049Z" style="fill:#e9d3a6;"/>
                        </g>
                        <g transform="matrix(0.36061,0,0,1.257844,-965.53491,2831.584911)">
                            <path d="M669.794,-991.049C620.818,-991.049 581.056,-1002.448 581.056,-1016.489L48.625,-1016.489L48.625,-863.847C48.625,-849.806 88.388,-838.407 137.364,-838.407L669.794,-838.407L669.794,-991.049Z" style="fill:#e9d3a6;"/>
                        </g>
                        <g transform="matrix(0.36061,0,0,1.257844,-965.53491,2575.584911)">
                            <path d="M669.794,-991.049C620.818,-991.049 581.056,-1002.448 581.056,-1016.489L48.625,-1016.489L48.625,-863.847C48.625,-849.806 88.388,-838.407 137.364,-838.407L669.794,-838.407L669.794,-991.049Z" style="fill:#e9d3a6;"/>
                        </g>
                        <g transform="matrix(0.412126,0,0,1.437536,1047.960124,2758.239842)">
                            <path d="M669.794,-1016.489L126.271,-1016.489C126.271,-1004.203 91.479,-994.229 48.625,-994.229L48.625,-838.407L592.148,-838.407C592.148,-850.692 626.94,-860.667 669.794,-860.667L669.794,-1016.489Z" style="fill:#e9d3a6;"/>
                        </g>
                        <g transform="matrix(0.412126,0,0,1.437536,535.960124,2502.239842)">
                            <path d="M669.794,-1016.489L126.271,-1016.489C126.271,-1004.203 91.479,-994.229 48.625,-994.229L48.625,-860.667C91.479,-860.667 126.271,-850.692 126.271,-838.407L592.148,-838.407C592.148,-850.692 626.94,-860.667 669.794,-860.667L669.794,-1016.489Z" style="fill:#e9d3a6;"/>
                        </g>
                        <g transform="matrix(0.412126,0,0,1.437536,-232.039876,2502.239842)">
                            <path d="M669.794,-994.229C626.94,-994.229 592.148,-1004.203 592.148,-1016.489L48.625,-1016.489L48.625,-860.667C91.479,-860.667 126.271,-850.692 126.271,-838.407L592.148,-838.407C592.148,-850.692 626.94,-860.667 669.794,-860.667L669.794,-994.229Z" style="fill:#e9d3a6;"/>
                        </g>
                        <g transform="matrix(0.412126,0,0,1.257844,-744.039876,2351.584911)">
                            <path d="M669.794,-1016.489L48.625,-1016.489L48.625,-863.847C91.479,-863.847 126.271,-852.448 126.271,-838.407L592.148,-838.407C592.148,-852.448 626.94,-863.847 669.794,-863.847L669.794,-1016.489Z" style="fill:#e9d3a6;"/>
                        </g>
                        <g transform="matrix(0.36061,0,0,1.257844,-485.53491,2351.584911)">
                            <path d="M669.794,-991.049C669.794,-1005.09 630.032,-1016.489 581.056,-1016.489L48.625,-1016.489L48.625,-863.847C97.601,-863.847 137.364,-852.448 137.364,-838.407L669.794,-838.407L669.794,-991.049Z" style="fill:#e9d3a6;"/>
                        </g>
                        <g transform="matrix(0.36061,0,0,1.257844,1562.46509,2351.584911)">
                            <path d="M669.794,-991.049C669.794,-1005.09 630.032,-1016.489 581.056,-1016.489L48.625,-1016.489L48.625,-838.407L669.794,-838.407L669.794,-991.049Z" style="fill:#e9d3a6;"/>
                        </g>
                        <g transform="matrix(0.412126,0,0,1.257844,1303.960124,2351.584911)">
                            <rect x="48.625" y="-1016.489" width="621.169" height="178.083" style="fill:#e9d3a6;"/>
                        </g>
                    </g>
                    <g>
                        <g transform="matrix(0.309095,0,0,3.773531,-1219.029945,4940.75395)">
                            <path d="M669.794,-1008.009C669.794,-1012.689 623.405,-1016.489 566.266,-1016.489L152.153,-1016.489C95.015,-1016.489 48.625,-1012.689 48.625,-1008.009L48.625,-846.887C48.625,-842.207 95.015,-838.407 152.153,-838.407L566.266,-838.407C623.405,-838.407 669.794,-842.207 669.794,-846.887L669.794,-1008.009Z" style="fill:#e4c27a;"/>
                        </g>
                        <g transform="matrix(0.309095,0,0,0.89846,-1219.029945,2786.275048)">
                            <path d="M669.794,-980.873C669.794,-1000.53 623.405,-1016.489 566.266,-1016.489L152.153,-1016.489C95.015,-1016.489 48.625,-1000.53 48.625,-980.873L48.625,-874.023C48.625,-854.366 95.015,-838.407 152.153,-838.407L566.266,-838.407C623.405,-838.407 669.794,-854.366 669.794,-874.023L669.794,-980.873Z" style="fill:#e4c27a;"/>
                        </g>
                        <g transform="matrix(1.133347,0,0,0.89846,-1003.109394,2786.275048)">
                            <path d="M669.794,-980.873C669.794,-1000.53 657.142,-1016.489 641.559,-1016.489L76.86,-1016.489C61.277,-1016.489 48.625,-1000.53 48.625,-980.873L48.625,-874.023C48.625,-854.366 61.277,-838.407 76.86,-838.407L641.559,-838.407C657.142,-838.407 669.794,-854.366 669.794,-874.023L669.794,-980.873Z" style="fill:#e4c27a;"/>
                        </g>
                        <g transform="matrix(0.36061,0,0,1.078152,-965.53491,2200.929979)">
                            <path d="M669.794,-1016.489L137.364,-1016.489C88.388,-1016.489 48.625,-1003.19 48.625,-986.809L48.625,-838.407L581.056,-838.407C581.056,-854.788 620.818,-868.087 669.794,-868.087L669.794,-1016.489Z" style="fill:#e4c27a;"/>
                        </g>
                        <g transform="matrix(0.36061,0,0,1.078152,826.46509,2200.929979)">
                            <path d="M669.794,-1016.489L137.364,-1016.489C88.388,-1016.489 48.625,-1003.19 48.625,-986.809L48.625,-838.407L669.794,-838.407L669.794,-1016.489Z" style="fill:#e4c27a;"/>
                        </g>
                        <g transform="matrix(0.412126,0,0,1.078152,279.960124,2200.929979)">
                            <path d="M669.794,-1016.489L48.625,-1016.489L48.625,-838.407L592.148,-838.407C592.148,-854.788 626.94,-868.087 669.794,-868.087L669.794,-1016.489Z" style="fill:#e4c27a;"/>
                        </g>
                        <g transform="matrix(0.412126,0,0,1.078152,23.960124,2200.929979)">
                            <path d="M669.794,-1016.489L48.625,-1016.489L48.625,-868.087C91.479,-868.087 126.271,-854.788 126.271,-838.407L669.794,-838.407L669.794,-1016.489Z" style="fill:#e4c27a;"/>
                        </g>
                        <g transform="matrix(0.412126,0,0,1.078152,-744.039876,2200.929979)">
                            <path d="M669.794,-1016.489L48.625,-1016.489L48.625,-868.087C91.479,-868.087 126.271,-854.788 126.271,-838.407L592.148,-838.407C592.148,-854.788 626.94,-868.087 669.794,-868.087L669.794,-1016.489Z" style="fill:#e4c27a;"/>
                        </g>
                        <g transform="matrix(0.36061,0,0,1.078152,-485.53491,2200.929979)">
                            <path d="M669.794,-986.809C669.794,-1003.19 630.032,-1016.489 581.056,-1016.489L48.625,-1016.489L48.625,-868.087C97.601,-868.087 137.364,-854.788 137.364,-838.407L669.794,-838.407L669.794,-986.809Z" style="fill:#e4c27a;"/>
                        </g>
                        <g transform="matrix(0.36061,0,0,1.078152,1562.46509,2200.929979)">
                            <path d="M669.794,-986.809C669.794,-1003.19 630.032,-1016.489 581.056,-1016.489L48.625,-1016.489L48.625,-838.407L669.794,-838.407L669.794,-986.809Z" style="fill:#e4c27a;"/>
                        </g>
                        <g transform="matrix(0.412126,0,0,1.078152,1303.960124,2200.929979)">
                            <rect x="48.625" y="-1016.489" width="621.169" height="178.083" style="fill:#e4c27a;"/>
                        </g>
                        <g transform="matrix(0.412126,0,0,1.257844,1047.960124,2351.584911)">
                            <path d="M669.794,-991.049C626.94,-991.049 592.148,-1002.448 592.148,-1016.489L126.271,-1016.489C126.271,-1002.448 91.479,-991.049 48.625,-991.049L48.625,-838.407L669.794,-838.407L669.794,-991.049Z" style="fill:#e4c27a;"/>
                        </g>
                        <g transform="matrix(1,0,0,1,-1236.000151,1041.000391)">
                            <rect x="2336" y="0" width="192" height="32" style="fill:#e4c27a;"/>
                        </g>
                        <g transform="matrix(1.166667,0,0,1,-1401.333484,1553.000391)">
                            <rect x="2336" y="0" width="192" height="32" style="fill:#e4c27a;"/>
                        </g>
                        <g transform="matrix(1.166667,0,0,1,-1881.333484,1553.000391)">
                            <rect x="2336" y="0" width="192" height="32" style="fill:#e4c27a;"/>
                        </g>
                        <g transform="matrix(0.36061,0,0,0.179692,1562.46509,1479.655322)">
                            <rect x="48.625" y="-1016.489" width="621.169" height="178.083" style="fill:#e4c27a;"/>
                        </g>
                        <g transform="matrix(0.412126,0,0,1.257844,1047.960124,2607.584911)">
                            <path d="M669.794,-1016.489L126.271,-1016.489C126.271,-1002.448 91.479,-991.049 48.625,-991.049L48.625,-838.407L592.148,-838.407C592.148,-852.448 626.94,-863.847 669.794,-863.847L669.794,-1016.489Z" style="fill:#e4c27a;"/>
                        </g>
                        <g transform="matrix(0.36061,0,0,0.179692,1082.46509,1479.655322)">
                            <rect x="48.625" y="-1016.489" width="621.169" height="178.083" style="fill:#e4c27a;"/>
                        </g>
                        <g transform="matrix(0.412126,0,0,1.257844,535.960124,2351.584911)">
                            <path d="M669.794,-1016.489L126.271,-1016.489C126.271,-1002.448 91.479,-991.049 48.625,-991.049L48.625,-863.847C91.479,-863.847 126.271,-852.448 126.271,-838.407L592.148,-838.407C592.148,-852.448 626.94,-863.847 669.794,-863.847L669.794,-1016.489Z" style="fill:#e4c27a;"/>
                        </g>
                        <g transform="matrix(0.412126,0,0,1.257844,-232.039876,2351.584911)">
                            <path d="M669.794,-991.049C626.94,-991.049 592.148,-1002.448 592.148,-1016.489L48.625,-1016.489L48.625,-863.847C91.479,-863.847 126.271,-852.448 126.271,-838.407L592.148,-838.407C592.148,-852.448 626.94,-863.847 669.794,-863.847L669.794,-991.049Z" style="fill:#e4c27a;"/>
                        </g>
                        <g transform="matrix(0.36061,0,0,0.179692,570.46509,1223.655322)">
                            <rect x="48.625" y="-1016.489" width="621.169" height="178.083" style="fill:#e4c27a;"/>
                        </g>
                        <g transform="matrix(0.36061,0,0,0.179692,-229.53491,1223.655322)">
                            <rect x="48.625" y="-1016.489" width="621.169" height="178.083" style="fill:#e4c27a;"/>
                        </g>
                        <g transform="matrix(0.309095,0,0,0.179692,572.970055,1991.655322)">
                            <rect x="48.625" y="-1016.489" width="621.169" height="178.083" style="fill:#e4c27a;"/>
                        </g>
                        <g transform="matrix(0.309095,0,0,0.179692,572.970055,1479.655322)">
                            <rect x="48.625" y="-1016.489" width="621.169" height="178.083" style="fill:#e4c27a;"/>
                        </g>
                        <g transform="matrix(0.36061,0,0,0.179692,282.46509,1991.655322)">
                            <rect x="48.625" y="-1016.489" width="621.169" height="178.083" style="fill:#e4c27a;"/>
                        </g>
                        <g transform="matrix(0.36061,0,0,0.179692,282.46509,1479.655322)">
                            <rect x="48.625" y="-1016.489" width="621.169" height="178.083" style="fill:#e4c27a;"/>
                        </g>
                        <g transform="matrix(0.36061,0,0,0.179692,58.46509,1991.655322)">
                            <rect x="48.625" y="-1016.489" width="621.169" height="178.083" style="fill:#e4c27a;"/>
                        </g>
                        <g transform="matrix(0.36061,0,0,0.179692,58.46509,1479.655322)">
                            <rect x="48.625" y="-1016.489" width="621.169" height="178.083" style="fill:#e4c27a;"/>
                        </g>
                        <g transform="matrix(0.309095,0,0,0.179692,-963.029945,1735.655322)">
                            <rect x="48.625" y="-1016.489" width="621.169" height="178.083" style="fill:#e4c27a;"/>
                        </g>
                        <g transform="matrix(0.309095,0,0,0.179692,-963.029945,1479.655322)">
                            <rect x="48.625" y="-1016.489" width="621.169" height="178.083" style="fill:#e4c27a;"/>
                        </g>
                        <g transform="matrix(0.309095,0,0,0.179692,-707.029945,1735.655322)">
                            <rect x="48.625" y="-1016.489" width="621.169" height="178.083" style="fill:#e4c27a;"/>
                        </g>
                        <g transform="matrix(0.309095,0,0,0.179692,-707.029945,1479.655322)">
                            <rect x="48.625" y="-1016.489" width="621.169" height="178.083" style="fill:#e4c27a;"/>
                        </g>
                        <g transform="matrix(0.309095,0,0,0.179692,-451.029945,1735.655322)">
                            <rect x="48.625" y="-1016.489" width="621.169" height="178.083" style="fill:#e4c27a;"/>
                        </g>
                        <g transform="matrix(0.309095,0,0,0.179692,-451.029945,1479.655322)">
                            <rect x="48.625" y="-1016.489" width="621.169" height="178.083" style="fill:#e4c27a;"/>
                        </g>
                        <g transform="matrix(0.309095,0,0,0.179692,-195.029945,1991.655322)">
                            <rect x="48.625" y="-1016.489" width="621.169" height="178.083" style="fill:#e4c27a;"/>
                        </g>
                        <g transform="matrix(0.309095,0,0,0.179692,-195.029945,1479.655322)">
                            <rect x="48.625" y="-1016.489" width="621.169" height="178.083" style="fill:#e4c27a;"/>
                        </g>
                        <g transform="matrix(0.36061,0,0,1.257844,-965.53491,2607.584911)">
                            <path d="M669.794,-991.049C620.818,-991.049 581.056,-1002.448 581.056,-1016.489L48.625,-1016.489L48.625,-838.407L581.056,-838.407C581.056,-852.448 620.818,-863.847 669.794,-863.847L669.794,-991.049Z" style="fill:#e4c27a;"/>
                        </g>
                        <g transform="matrix(0.412126,0,0,1.257844,-744.039876,2607.584911)">
                            <path d="M669.794,-991.049C626.94,-991.049 592.148,-1002.448 592.148,-1016.489L126.271,-1016.489C126.271,-1002.448 91.479,-991.049 48.625,-991.049L48.625,-863.847C91.479,-863.847 126.271,-852.448 126.271,-838.407L592.148,-838.407C592.148,-852.448 626.94,-863.847 669.794,-863.847L669.794,-991.049Z" style="fill:#e4c27a;"/>
                        </g>
                        <g transform="matrix(0.36061,0,0,1.257844,538.46509,2607.584911)">
                            <path d="M669.794,-1016.489L137.364,-1016.489C137.364,-1002.448 97.601,-991.049 48.625,-991.049L48.625,-838.407L669.794,-838.407L669.794,-1016.489Z" style="fill:#e4c27a;"/>
                        </g>
                        <g transform="matrix(0.36061,0,0,1.437536,538.46509,3014.239842)">
                            <path d="M669.794,-1016.489L48.625,-1016.489L48.625,-860.667C97.601,-860.667 137.364,-850.692 137.364,-838.407L669.794,-838.407L669.794,-1016.489Z" style="fill:#e4c27a;"/>
                        </g>
                        <g transform="matrix(0.412126,0,0,1.257844,535.960124,3119.584911)">
                            <path d="M669.794,-991.049C626.94,-991.049 592.148,-1002.448 592.148,-1016.489L126.271,-1016.489C126.271,-1002.448 91.479,-991.049 48.625,-991.049L48.625,-863.847C91.479,-863.847 126.271,-852.448 126.271,-838.407L669.794,-838.407L669.794,-991.049Z" style="fill:#e4c27a;"/>
                        </g>
                        <g transform="matrix(0.412126,0,0,1.078152,279.960124,2936.929979)">
                            <path d="M669.794,-986.809C626.94,-986.809 592.148,-1000.108 592.148,-1016.489L48.625,-1016.489L48.625,-838.407L669.794,-838.407L669.794,-986.809Z" style="fill:#e4c27a;"/>
                        </g>
                        <g transform="matrix(0.412126,0,0,1.257844,279.960124,2607.584911)">
                            <path d="M669.794,-991.049C626.94,-991.049 592.148,-1002.448 592.148,-1016.489L48.625,-1016.489L48.625,-838.407L669.794,-838.407L669.794,-991.049Z" style="fill:#e4c27a;"/>
                        </g>
                        <g transform="matrix(0.412126,0,0,1.257844,23.960124,2607.584911)">
                            <path d="M669.794,-1016.489L126.271,-1016.489C126.271,-1002.448 91.479,-991.049 48.625,-991.049L48.625,-838.407L669.794,-838.407L669.794,-1016.489Z" style="fill:#e4c27a;"/>
                        </g>
                        <g transform="matrix(0.36061,0,0,1.257844,-197.53491,2607.584911)">
                            <path d="M669.794,-991.049C620.818,-991.049 581.056,-1002.448 581.056,-1016.489L48.625,-1016.489L48.625,-838.407L669.794,-838.407L669.794,-991.049Z" style="fill:#e4c27a;"/>
                        </g>
                        <g transform="matrix(0.36061,0,0,1.437536,-197.53491,3014.239842)">
                            <path d="M669.794,-1016.489L48.625,-1016.489L48.625,-838.407L581.056,-838.407C581.056,-850.692 620.818,-860.667 669.794,-860.667L669.794,-1016.489Z" style="fill:#e4c27a;"/>
                        </g>
                        <g transform="matrix(0.412126,0,0,1.437536,23.960124,3014.239842)">
                            <path d="M669.794,-1016.489L48.625,-1016.489L48.625,-860.667C91.479,-860.667 126.271,-850.692 126.271,-838.407L669.794,-838.407L669.794,-1016.489Z" style="fill:#e4c27a;"/>
                        </g>
                        <g transform="matrix(0.412126,0,0,1.437536,279.960124,3014.239842)">
                            <path d="M669.794,-1016.489L48.625,-1016.489L48.625,-838.407L592.148,-838.407C592.148,-850.692 626.94,-860.667 669.794,-860.667L669.794,-1016.489Z" style="fill:#e4c27a;"/>
                        </g>
                        <g transform="matrix(0.412126,0,0,1.078152,23.960124,2936.929979)">
                            <path d="M669.794,-1016.489L126.271,-1016.489C126.271,-1000.108 91.479,-986.809 48.625,-986.809L48.625,-838.407L669.794,-838.407L669.794,-1016.489Z" style="fill:#e4c27a;"/>
                        </g>
                        <g transform="matrix(0.412126,0,0,1.257844,-232.039876,3119.584911)">
                            <path d="M669.794,-991.049C626.94,-991.049 592.148,-1002.448 592.148,-1016.489L126.271,-1016.489C126.271,-1002.448 91.479,-991.049 48.625,-991.049L48.625,-838.407L592.148,-838.407C592.148,-852.448 626.94,-863.847 669.794,-863.847L669.794,-991.049Z" style="fill:#e4c27a;"/>
                        </g>
                        <g transform="matrix(0.36061,0,0,1.257844,-485.53491,2607.584911)">
                            <path d="M669.794,-1016.489L137.364,-1016.489C137.364,-1002.448 97.601,-991.049 48.625,-991.049L48.625,-863.847C97.601,-863.847 137.364,-852.448 137.364,-838.407L669.794,-838.407L669.794,-1016.489Z" style="fill:#e4c27a;"/>
                        </g>
                        <g transform="matrix(0.36061,0,0,1.078152,-965.53491,2680.929979)">
                            <path d="M669.794,-986.809C620.818,-986.809 581.056,-1000.108 581.056,-1016.489L48.625,-1016.489L48.625,-868.087C48.625,-851.706 88.388,-838.407 137.364,-838.407L669.794,-838.407L669.794,-986.809Z" style="fill:#e4c27a;"/>
                        </g>
                        <g transform="matrix(0.36061,0,0,1.257844,826.46509,3087.584911)">
                            <path d="M669.794,-1016.489L48.625,-1016.489L48.625,-863.847C48.625,-849.806 88.388,-838.407 137.364,-838.407L669.794,-838.407L669.794,-1016.489Z" style="fill:#e4c27a;"/>
                        </g>
                        <g transform="matrix(0.36061,0,0,1.437536,826.46509,2758.239842)">
                            <rect x="48.625" y="-1016.489" width="621.169" height="178.083" style="fill:#e4c27a;"/>
                        </g>
                        <g transform="matrix(0.412126,0,0,1.437536,1047.960124,3014.239842)">
                            <rect x="48.625" y="-1016.489" width="621.169" height="178.083" style="fill:#e4c27a;"/>
                        </g>
                        <g transform="matrix(0.412126,0,0,1.257844,1047.960124,3087.584911)">
                            <rect x="48.625" y="-1016.489" width="621.169" height="178.083" style="fill:#e4c27a;"/>
                        </g>
                        <g transform="matrix(0.412126,0,0,1.437536,1303.960124,3270.239842)">
                            <path d="M669.794,-1016.489L48.625,-1016.489L48.625,-860.667C91.479,-860.667 126.271,-850.692 126.271,-838.407L592.148,-838.407C592.148,-850.692 626.94,-860.667 669.794,-860.667L669.794,-1016.489Z" style="fill:#e4c27a;"/>
                        </g>
                        <g transform="matrix(0.412126,0,0,1.257844,1559.960124,2607.584911)">
                            <path d="M669.794,-991.049C626.94,-991.049 592.148,-1002.448 592.148,-1016.489L48.625,-1016.489L48.625,-838.407L592.148,-838.407C592.148,-852.448 626.94,-863.847 669.794,-863.847L669.794,-991.049Z" style="fill:#e4c27a;"/>
                        </g>
                        <g transform="matrix(0.412126,0,0,1.257844,791.960124,2863.584911)">
                            <path d="M669.794,-1016.489L126.271,-1016.489C126.271,-1002.448 91.479,-991.049 48.625,-991.049L48.625,-863.847C91.479,-863.847 126.271,-852.448 126.271,-838.407L669.794,-838.407L669.794,-1016.489Z" style="fill:#e4c27a;"/>
                        </g>
                        <g transform="matrix(0.412126,0,0,1.078152,-744.039876,2680.929979)">
                            <path d="M669.794,-986.809C626.94,-986.809 592.148,-1000.108 592.148,-1016.489L126.271,-1016.489C126.271,-1000.108 91.479,-986.809 48.625,-986.809L48.625,-838.407L669.794,-838.407L669.794,-986.809Z" style="fill:#e4c27a;"/>
                        </g>
                        <g transform="matrix(0.36061,0,0,1.078152,-485.53491,2680.929979)">
                            <path d="M669.794,-1016.489L137.364,-1016.489C137.364,-1000.108 97.601,-986.809 48.625,-986.809L48.625,-838.407L581.056,-838.407C630.032,-838.407 669.794,-851.706 669.794,-868.087L669.794,-1016.489Z" style="fill:#e4c27a;"/>
                        </g>
                        <g transform="matrix(0.36061,0,0,1.257844,1562.46509,3087.584911)">
                            <path d="M669.794,-1016.489L48.625,-1016.489L48.625,-838.407L581.056,-838.407C630.032,-838.407 669.794,-849.806 669.794,-863.847L669.794,-1016.489Z" style="fill:#e4c27a;"/>
                        </g>
                        <g transform="matrix(0.36061,0,0,1.437536,1562.46509,3014.239842)">
                            <rect x="48.625" y="-1016.489" width="621.169" height="178.083" style="fill:#e4c27a;"/>
                        </g>
                        <g transform="matrix(0.412126,0,0,1.257844,1303.960124,2863.584911)">
                            <path d="M669.794,-991.049C626.94,-991.049 592.148,-1002.448 592.148,-1016.489L48.625,-1016.489L48.625,-863.847C91.479,-863.847 126.271,-852.448 126.271,-838.407L669.794,-838.407L669.794,-991.049Z" style="fill:#e4c27a;"/>
                        </g>
                    </g>
                </g>
            </g>
        </g>
    </g>
</svg>
